<?xml version="1.0" encoding="utf-8"?>
<!-- Generator: Adobe Illustrator 16.0.0, SVG Export Plug-In . SVG Version: 6.00 Build 0)  -->
<!DOCTYPE svg PUBLIC "-//W3C//DTD SVG 1.1//EN" "http://www.w3.org/Graphics/SVG/1.1/DTD/svg11.dtd">
<svg version="1.1" xmlns="http://www.w3.org/2000/svg" xmlns:xlink="http://www.w3.org/1999/xlink" x="0px" y="0px" width="36px"
	 height="36px" viewBox="0 0 36 36" enable-background="new 0 0 36 36" xml:space="preserve">
<g id="print" display="none">
	<path display="inline" fill="#FFFFFF" d="M30,26v-2h6V10h-6V0H6v10H0v14h6v12h14 M8,6h20v4H8V6z M34,20h-4v-4h-2v8H16v10H8V16H6v4
		H2v-8h32V20z"/>
</g>
<g id="new" display="none">
	<polygon display="inline" fill="#FFFFFF" points="36,16 20,16 20,0 16,0 16,16 0,16 0,20 16,20 16,36 20,36 20,20 36,20 	"/>
</g>
<g id="Layer_3" display="none">
	<path display="inline" fill="#FFFFFF" d="M28,28h-6.061l-4.135-5.848L13.459,28H7.371l7.555-9.596L8.824,10h6.15l2.857,4.519
		L20.875,10h6.258l-6.393,7.904l7.262,9.846"/>
	
		<rect x="2" y="2" display="inline" fill="none" stroke="#FFFFFF" stroke-width="4" stroke-miterlimit="10" width="32" height="32"/>
</g>
<g id="Layer_4">
	<polygon fill="#FFFFFF" points="23.487,34.719 6.716,17.946 23.487,1.175 22.499,0.186 5.728,16.958 4.741,17.946 5.728,18.933 
		22.499,35.704 	"/>
</g>
<g id="Layer_5" display="none">
	<polygon display="inline" fill="#FFFFFF" points="11.513,1.173 28.284,17.946 11.513,34.717 12.501,35.706 29.272,18.935 
		30.259,17.946 29.272,16.959 12.501,0.188 	"/>
</g>
</svg>
