<?xml version="1.0" encoding="utf-8"?>
<!-- Generator: Adobe Illustrator 16.0.0, SVG Export Plug-In . SVG Version: 6.00 Build 0)  -->
<!DOCTYPE svg PUBLIC "-//W3C//DTD SVG 1.1//EN" "http://www.w3.org/Graphics/SVG/1.1/DTD/svg11.dtd">
<svg version="1.1" xmlns="http://www.w3.org/2000/svg" xmlns:xlink="http://www.w3.org/1999/xlink" x="0px" y="0px" width="32px"
	 height="32px" viewBox="0 0 32 32" enable-background="new 0 0 32 32" xml:space="preserve">
<g id="Layer_1" display="none">
	<g display="inline">
		<path fill="#999250" d="M19.845,10.521l-4.476,15.517c-0.235,0.889-0.353,1.475-0.353,1.765c0,0.144,0.064,0.288,0.19,0.434
			s0.262,0.217,0.407,0.217c0.253,0,0.498-0.109,0.731-0.326c0.669-0.543,1.457-1.52,2.361-2.93l0.76,0.434
			c-2.207,3.835-4.548,5.752-7.026,5.752c-0.94,0-1.691-0.267-2.251-0.8s-0.841-1.208-0.841-2.022c0-0.541,0.126-1.229,0.38-2.061
			l3.038-10.444c0.289-0.995,0.434-1.746,0.434-2.251c0-0.326-0.141-0.615-0.42-0.869c-0.281-0.253-0.656-0.38-1.126-0.38
			c-0.234,0-0.498,0.01-0.787,0.027l0.271-0.868l7.406-1.193H19.845z M18.487,0.456c0.905,0,1.67,0.317,2.293,0.949
			c0.625,0.634,0.937,1.394,0.937,2.279c0,0.887-0.316,1.641-0.95,2.266c-0.634,0.622-1.394,0.936-2.279,0.936
			c-0.867,0-1.615-0.313-2.236-0.936c-0.625-0.625-0.937-1.379-0.937-2.266c0-0.886,0.308-1.646,0.922-2.279
			C16.851,0.773,17.603,0.456,18.487,0.456z"/>
	</g>
</g>
<g id="Layer_2">
	<polygon fill="#C15D5D" points="30.416,27.549 19.166,16.299 30.416,5.048 27.202,1.833 15.951,13.084 4.7,1.833 1.486,5.048 
		12.737,16.299 1.486,27.549 4.7,30.763 15.951,19.513 27.202,30.763 	"/>
</g>
</svg>
