<?xml version="1.0" encoding="utf-8"?>
<!-- Generator: Adobe Illustrator 16.0.0, SVG Export Plug-In . SVG Version: 6.00 Build 0)  -->
<!DOCTYPE svg PUBLIC "-//W3C//DTD SVG 1.1//EN" "http://www.w3.org/Graphics/SVG/1.1/DTD/svg11.dtd">
<svg version="1.1" xmlns="http://www.w3.org/2000/svg" xmlns:xlink="http://www.w3.org/1999/xlink" x="0px" y="0px" width="36px"
	 height="36px" viewBox="0 0 36 36" enable-background="new 0 0 36 36" xml:space="preserve">
<g id="print" display="none">
	<path display="inline" fill="#FFFFFF" d="M30,26v-2h6V10h-6V0H6v10H0v14h6v12h14 M8,6h20v4H8V6z M34,20h-4v-4h-2v8H16v10H8V16H6v4
		H2v-8h32V20z"/>
</g>
<g id="new">
	<polygon fill="#FFFFFF" points="36,16 20,16 20,0 16,0 16,16 0,16 0,20 16,20 16,36 20,36 20,20 36,20 	"/>
</g>
</svg>
