<?xml version="1.0" encoding="utf-8"?>
<!-- Generator: Adobe Illustrator 16.0.0, SVG Export Plug-In . SVG Version: 6.00 Build 0)  -->
<!DOCTYPE svg PUBLIC "-//W3C//DTD SVG 1.1//EN" "http://www.w3.org/Graphics/SVG/1.1/DTD/svg11.dtd">
<svg version="1.1" xmlns="http://www.w3.org/2000/svg" xmlns:xlink="http://www.w3.org/1999/xlink" x="0px" y="0px" width="36px"
	 height="36px" viewBox="0 0 36 36" enable-background="new 0 0 36 36" xml:space="preserve">
<g id="print" display="none">
	<path display="inline" fill="#FFFFFF" d="M30,26v-2h6V10h-6V0H6v10H0v14h6v12h14 M8,6h20v4H8V6z M34,20h-4v-4h-2v8H16v10H8V16H6v4
		H2v-8h32V20z"/>
</g>
<g id="new" display="none">
	<polygon display="inline" fill="#FFFFFF" points="36,16 20,16 20,0 16,0 16,16 0,16 0,20 16,20 16,36 20,36 20,20 36,20 	"/>
</g>
<g id="Layer_3" display="none">
	<path display="inline" fill="#FFFFFF" d="M28,28h-6.061l-4.135-5.848L13.459,28H7.371l7.555-9.596L8.824,10h6.15l2.857,4.519
		L20.875,10h6.258l-6.393,7.904l7.262,9.846"/>
	
		<rect x="2" y="2" display="inline" fill="none" stroke="#FFFFFF" stroke-width="4" stroke-miterlimit="10" width="32" height="32"/>
</g>
<g id="Layer_4" display="none">
	<rect y="6" display="inline" fill="#808285" width="36" height="30"/>
	<rect x="4" y="11" display="inline" fill="#FFFFFF" width="28" height="21"/>
	
		<rect x="5" y="-2" display="inline" fill="#808285" stroke="#FFFFFF" stroke-width="2" stroke-miterlimit="10" width="5" height="10"/>
	
		<rect x="26" y="-2" display="inline" fill="#808285" stroke="#FFFFFF" stroke-width="2" stroke-miterlimit="10" width="5" height="10"/>
	<rect x="7" y="15" display="inline" fill="#808285" width="6" height="5"/>
	<rect x="15" y="15" display="inline" fill="#808285" width="6" height="5"/>
	<rect x="23" y="15" display="inline" fill="#808285" width="6" height="5"/>
	<rect x="7" y="23" display="inline" fill="#808285" width="6" height="5"/>
	<rect x="15" y="23" display="inline" fill="#808285" width="6" height="5"/>
	<rect x="23" y="23" display="inline" fill="#808285" width="6" height="5"/>
</g>
<g id="Layer_5" display="none">
	<rect x="17" y="2" display="inline" fill="#FFFFFF" width="7" height="8"/>
	<path display="inline" fill="#FFFFFF" d="M31.2,0H26v12H5V0H0v36h36V4.8L31.2,0z M26,20H8v12H5V21v-4h4h17V20z"/>
</g>
<g id="Layer_6">
	<g>
		<path fill="#FFFFFF" d="M2.081,36c-0.79,0-1.419-0.357-1.772-1.02c-0.326-0.606-0.397-1.411-0.198-2.279
			c0.22-0.98,0.76-1.867,1.7-2.785c1.147-1.116,2.843-2.248,4.778-3.193c0.954-0.463,2.062-0.93,3.294-1.389
			c2.017-3.146,3.738-6.492,4.866-9.458c0.16-0.418,0.311-0.834,0.451-1.25c-0.459-1.07-0.739-1.984-0.938-2.684
			c-0.395-1.404-0.649-2.674-0.752-3.761c-0.103-1.074-0.084-2.132,0.058-3.155c0.14-1.044,0.368-1.756,0.739-2.311
			c0.364-0.541,0.893-0.947,1.534-1.181c0.348-0.131,0.623-0.164,0.788-0.181c0.531-0.089,0.803-0.078,1.177,0.036
			c0.338,0.097,0.673,0.291,0.968,0.462c1.467,0.642,1.32,1.926,1.136,3.548l-0.079,0.715c-0.203,1.906-0.786,5.057-1.823,8.346
			c0.072,0.146,0.147,0.294,0.226,0.445c0.776,1.455,1.904,3.133,3.253,4.847c0.617,0.78,1.327,1.624,2.073,2.459
			c1.196-0.078,2.375-0.07,3.521,0.026c1.187,0.094,2.414,0.292,3.548,0.561c1.268,0.308,2.186,0.673,2.979,1.171
			c1.006,0.626,1.781,1.475,2.183,2.377c0.466,1.028,0.483,2.209,0.04,3.139c-0.395,0.839-1.151,1.455-2.184,1.787
			c-0.922,0.294-1.891,0.298-2.875,0.002c-0.914-0.271-1.976-0.832-3.158-1.672c-1.175-0.829-2.285-1.786-3.595-3.089
			c-0.479-0.475-0.989-1.008-1.521-1.579c-0.813,0.093-1.728,0.237-2.917,0.451c-1.445,0.265-3.075,0.587-5.195,1.21
			c-0.875,0.261-1.83,0.563-2.789,0.902c-0.107,0.159-0.214,0.318-0.319,0.479c-1.834,2.719-3.63,4.856-5.195,6.185
			c-1.19,1.012-2.301,1.591-3.399,1.785C2.456,35.982,2.252,36,2.081,36z M2.079,33.382l0.002,1.312v-1.312H2.079z M6.919,29.492
			c-1.775,0.957-2.8,1.824-3.282,2.295c-0.704,0.692-0.892,1.144-0.969,1.467c0.369-0.133,0.938-0.42,1.722-1.085
			C4.992,31.655,5.842,30.822,6.919,29.492z M26,24.789c1.144,1.129,2.114,1.957,3.125,2.677c1.187,0.84,1.959,1.175,2.391,1.303
			c0.488,0.145,0.9,0.148,1.336,0.008c0.188-0.059,0.51-0.19,0.615-0.408c0.091-0.19,0.106-0.572-0.064-0.953
			c-0.19-0.432-0.622-0.879-1.188-1.229c-0.545-0.342-1.226-0.606-2.2-0.844c-1.003-0.237-2.092-0.408-3.146-0.498
			C26.579,24.82,26.292,24.801,26,24.789z M16.837,17.708c-0.949,2.336-2.069,4.515-3.127,6.358c2.209-0.643,3.903-0.98,5.403-1.257
			c0.477-0.082,0.906-0.155,1.307-0.222c-0.347-0.412-0.677-0.82-0.988-1.216C18.446,20.118,17.567,18.877,16.837,17.708z
			 M16.871,2.641l0.183,1.295c-0.008,0.004-0.309,0.055-0.315,0.059c-0.084,0.029-0.195,0.087-0.261,0.183
			c-0.072,0.109-0.212,0.409-0.317,1.198c-0.113,0.817-0.128,1.7-0.047,2.554c0.063,0.64,0.187,1.359,0.374,2.157
			c0.385-1.69,0.628-3.178,0.743-4.25l0.082-0.737c0.042-0.374,0.085-0.758,0.101-1.013c-0.125-0.072-0.253-0.154-0.366-0.19
			l0.043-0.45L16.871,2.641z"/>
	</g>
</g>
</svg>
