<?xml version="1.0" encoding="utf-8"?>
<!-- Generator: Adobe Illustrator 16.0.0, SVG Export Plug-In . SVG Version: 6.00 Build 0)  -->
<!DOCTYPE svg PUBLIC "-//W3C//DTD SVG 1.1//EN" "http://www.w3.org/Graphics/SVG/1.1/DTD/svg11.dtd">
<svg version="1.1" xmlns="http://www.w3.org/2000/svg" xmlns:xlink="http://www.w3.org/1999/xlink" x="0px" y="0px" width="36px"
	 height="36px" viewBox="0 0 36 36" enable-background="new 0 0 36 36" xml:space="preserve">
<g id="print" display="none">
	<path display="inline" fill="#FFFFFF" d="M30,26v-2h6V10h-6V0H6v10H0v14h6v12h14 M8,6h20v4H8V6z M34,20h-4v-4h-2v8H16v10H8V16H6v4
		H2v-8h32V20z"/>
</g>
<g id="new" display="none">
	<polygon display="inline" fill="#FFFFFF" points="36,16 20,16 20,0 16,0 16,16 0,16 0,20 16,20 16,36 20,36 20,20 36,20 	"/>
</g>
<g id="Layer_3" display="none">
	<path display="inline" fill="#FFFFFF" d="M28,28h-6.061l-4.135-5.848L13.459,28H7.371l7.555-9.596L8.824,10h6.15l2.857,4.519
		L20.875,10h6.258l-6.393,7.904l7.262,9.846"/>
	
		<rect x="2" y="2" display="inline" fill="none" stroke="#FFFFFF" stroke-width="4" stroke-miterlimit="10" width="32" height="32"/>
</g>
<g id="Layer_4" display="none">
	<rect y="6" display="inline" fill="#808285" width="36" height="30"/>
	<rect x="4" y="11" display="inline" fill="#FFFFFF" width="28" height="21"/>
	
		<rect x="5" y="-2" display="inline" fill="#808285" stroke="#FFFFFF" stroke-width="2" stroke-miterlimit="10" width="5" height="10"/>
	
		<rect x="26" y="-2" display="inline" fill="#808285" stroke="#FFFFFF" stroke-width="2" stroke-miterlimit="10" width="5" height="10"/>
	<rect x="7" y="15" display="inline" fill="#808285" width="6" height="5"/>
	<rect x="15" y="15" display="inline" fill="#808285" width="6" height="5"/>
	<rect x="23" y="15" display="inline" fill="#808285" width="6" height="5"/>
	<rect x="7" y="23" display="inline" fill="#808285" width="6" height="5"/>
	<rect x="15" y="23" display="inline" fill="#808285" width="6" height="5"/>
	<rect x="23" y="23" display="inline" fill="#808285" width="6" height="5"/>
</g>
<g id="Layer_5">
	<rect x="17" y="2" fill="#FFFFFF" width="7" height="8"/>
	<path fill="#FFFFFF" d="M31.2,0H26v12H5V0H0v36h36V4.8L31.2,0z M26,20H8v12H5V21v-4h4h17V20z"/>
</g>
</svg>
