<?xml version="1.0" encoding="utf-8"?>
<!-- Generator: Adobe Illustrator 16.0.0, SVG Export Plug-In . SVG Version: 6.00 Build 0)  -->
<!DOCTYPE svg PUBLIC "-//W3C//DTD SVG 1.1//EN" "http://www.w3.org/Graphics/SVG/1.1/DTD/svg11.dtd">
<svg version="1.1" xmlns="http://www.w3.org/2000/svg" xmlns:xlink="http://www.w3.org/1999/xlink" x="0px" y="0px" width="28px"
	 height="28px" viewBox="0 0 28 28" enable-background="new 0 0 28 28" xml:space="preserve">
<g id="Layer_1" display="none">
	<path display="inline" fill="#1C75BC" d="M23,7V0H5v7H0v11h5v10h10.878l7.841-8.313L23,19.994V18h5V7H23z M6,5h16v2H6V5z M27,16h-4
		v-4h-1v6H12v9H6V12H5v4H1v-6h26V16z"/>
</g>
<g id="Layer_2">
	<g>
		<g>
			<path fill="#00A651" d="M28,28H0V-1h28V28z M3,25h21V3H3V25z"/>
		</g>
		<polyline fill="#00A651" points="21,21 16.666,21 13.86,16.452 10.912,21 6.781,21 11.908,13.537 7.768,7 11.94,7 13.88,10.516 
			15.945,7 20.189,7 15.853,13.537 20.891,21 		"/>
	</g>
</g>
</svg>
