<?xml version="1.0" encoding="utf-8"?>
<!-- Generator: Adobe Illustrator 16.0.0, SVG Export Plug-In . SVG Version: 6.00 Build 0)  -->
<!DOCTYPE svg PUBLIC "-//W3C//DTD SVG 1.1//EN" "http://www.w3.org/Graphics/SVG/1.1/DTD/svg11.dtd">
<svg version="1.1" xmlns="http://www.w3.org/2000/svg" xmlns:xlink="http://www.w3.org/1999/xlink" x="0px" y="0px" width="32px"
	 height="32px" viewBox="0 0 32 32" enable-background="new 0 0 32 32" xml:space="preserve">
<g id="Layer_1" display="none">
	<g id="miu_13_" display="inline">
		<path id="editor_pencil_pen_edit_write_glyph_13_" fill="#00A79D" d="M2.624,21.711l7.492,7.492l17.126-17.126l-7.491-7.492
			L2.624,21.711z M24.062,0.272l-3.157,3.162l7.492,7.49l3.158-3.16c1.073-1.074,0-2.147,0-2.147l-5.346-5.345
			C26.209,0.272,25.137-0.801,24.062,0.272z M1.573,22.728L0,31.829l9.08-1.593L1.573,22.728z"/>
	</g>
</g>
<g id="Layer_2">
	<polygon fill="#BE1E2D" points="31.925,28.637 19.539,16.25 31.925,3.864 28.386,0.325 16,12.711 3.614,0.325 0.075,3.864 
		12.461,16.25 0.075,28.637 3.614,32.175 16,19.789 28.386,32.175 	"/>
</g>
</svg>
