<?xml version="1.0" encoding="utf-8"?>
<!-- Generator: Adobe Illustrator 16.0.0, SVG Export Plug-In . SVG Version: 6.00 Build 0)  -->
<!DOCTYPE svg PUBLIC "-//W3C//DTD SVG 1.1//EN" "http://www.w3.org/Graphics/SVG/1.1/DTD/svg11.dtd">
<svg version="1.1" xmlns="http://www.w3.org/2000/svg" xmlns:xlink="http://www.w3.org/1999/xlink" x="0px" y="0px" width="28px"
	 height="28px" viewBox="0 0 28 28" enable-background="new 0 0 28 28" xml:space="preserve">
<g id="Layer_1" display="none">
	<path display="inline" fill="#1C75BC" d="M23,7V0H5v7H0v11h5v10h10.878l7.841-8.313L23,19.994V18h5V7H23z M6,5h16v2H6V5z M27,16h-4
		v-4h-1v6H12v9H6V12H5v4H1v-6h26V16z"/>
</g>
<g id="Layer_2" display="none">
	<g display="inline">
		<g>
			<path fill="#00A651" d="M28,28H0V-1h28V28z M3,25h21V3H3V25z"/>
		</g>
		<polyline fill="#00A651" points="21,21 16.666,21 13.86,16.452 10.912,21 6.781,21 11.908,13.537 7.768,7 11.94,7 13.88,10.516 
			15.945,7 20.189,7 15.853,13.537 20.891,21 		"/>
	</g>
</g>
<g id="Layer_3">
	<g>
		<path fill="#EA4C3A" d="M5.851,22.426c-0.396,0-0.713-0.18-0.89-0.512c-0.164-0.305-0.199-0.709-0.1-1.145
			c0.11-0.492,0.382-0.938,0.854-1.398c0.576-0.561,1.428-1.129,2.399-1.604c0.479-0.232,1.035-0.467,1.654-0.697
			c1.013-1.58,1.877-3.26,2.443-4.749c0.08-0.21,0.156-0.418,0.226-0.628c-0.229-0.537-0.371-0.996-0.47-1.347
			c-0.199-0.706-0.327-1.343-0.378-1.888c-0.052-0.539-0.042-1.071,0.029-1.584c0.07-0.524,0.185-0.882,0.371-1.161
			c0.183-0.271,0.449-0.475,0.771-0.592c0.174-0.066,0.312-0.082,0.395-0.091c0.267-0.044,0.404-0.039,0.59,0.018
			c0.17,0.049,0.339,0.146,0.487,0.232c0.736,0.322,0.663,0.966,0.57,1.782l-0.04,0.359c-0.102,0.957-0.395,2.538-0.915,4.19
			c0.036,0.073,0.074,0.148,0.112,0.223c0.39,0.731,0.957,1.574,1.634,2.435c0.31,0.391,0.666,0.815,1.041,1.234
			c0.601-0.039,1.192-0.035,1.768,0.014c0.596,0.047,1.212,0.146,1.781,0.281c0.637,0.154,1.098,0.338,1.496,0.588
			c0.505,0.314,0.895,0.74,1.096,1.193c0.234,0.517,0.243,1.109,0.021,1.576c-0.198,0.421-0.578,0.73-1.097,0.897
			c-0.463,0.147-0.949,0.149-1.443,0.001c-0.459-0.137-0.992-0.418-1.586-0.84c-0.59-0.416-1.147-0.896-1.805-1.551
			c-0.24-0.238-0.497-0.506-0.764-0.793c-0.408,0.047-0.867,0.119-1.465,0.227c-0.726,0.133-1.543,0.295-2.609,0.607
			c-0.439,0.131-0.918,0.283-1.4,0.453c-0.054,0.08-0.107,0.16-0.161,0.24c-0.92,1.365-1.822,2.438-2.608,3.105
			c-0.598,0.508-1.155,0.799-1.707,0.896C6.039,22.417,5.937,22.426,5.851,22.426z M5.85,21.111l0.001,0.658L5.85,21.111
			L5.85,21.111z M8.28,19.158c-0.891,0.48-1.406,0.916-1.648,1.152c-0.354,0.348-0.448,0.574-0.486,0.736
			c0.185-0.066,0.471-0.211,0.865-0.545C7.312,20.244,7.739,19.826,8.28,19.158z M17.86,16.797c0.574,0.566,1.062,0.982,1.569,1.344
			c0.596,0.422,0.983,0.59,1.2,0.654c0.245,0.072,0.452,0.074,0.671,0.004c0.095-0.029,0.256-0.096,0.309-0.205
			c0.046-0.096,0.054-0.287-0.032-0.479c-0.096-0.217-0.313-0.441-0.597-0.617c-0.273-0.172-0.615-0.305-1.104-0.424
			c-0.504-0.119-1.051-0.205-1.58-0.25C18.151,16.813,18.007,16.803,17.86,16.797z M13.26,13.241
			c-0.477,1.173-1.039,2.267-1.571,3.192c1.11-0.322,1.96-0.492,2.713-0.631c0.239-0.041,0.454-0.078,0.656-0.111
			c-0.174-0.207-0.34-0.412-0.497-0.61C14.067,14.451,13.626,13.828,13.26,13.241z M13.276,5.676l0.092,0.65
			c-0.004,0.001-0.155,0.027-0.158,0.029c-0.042,0.015-0.098,0.044-0.131,0.092c-0.036,0.054-0.106,0.205-0.16,0.602
			c-0.056,0.411-0.064,0.853-0.023,1.282c0.031,0.322,0.094,0.683,0.188,1.083c0.194-0.848,0.315-1.596,0.373-2.133l0.041-0.37
			c0.021-0.188,0.043-0.381,0.051-0.509c-0.062-0.036-0.126-0.077-0.183-0.096l0.021-0.226L13.276,5.676z"/>
	</g>
	<rect x="1.5" y="1.5" fill="none" stroke="#EA4C3A" stroke-width="3" stroke-miterlimit="10" width="25" height="25"/>
</g>
</svg>
