<?xml version="1.0" encoding="utf-8"?>
<!-- Generator: Adobe Illustrator 16.0.0, SVG Export Plug-In . SVG Version: 6.00 Build 0)  -->
<!DOCTYPE svg PUBLIC "-//W3C//DTD SVG 1.1//EN" "http://www.w3.org/Graphics/SVG/1.1/DTD/svg11.dtd">
<svg version="1.1" xmlns="http://www.w3.org/2000/svg" xmlns:xlink="http://www.w3.org/1999/xlink" x="0px" y="0px" width="32px"
	 height="32px" viewBox="0 0 32 32" enable-background="new 0 0 32 32" xml:space="preserve">
<g id="Layer_1" display="none">
	<g id="miu_13_" display="inline">
		<path id="editor_pencil_pen_edit_write_glyph_13_" fill="#00A79D" d="M2.624,21.711l7.492,7.492l17.126-17.126l-7.491-7.492
			L2.624,21.711z M24.062,0.272l-3.157,3.162l7.492,7.49l3.158-3.16c1.073-1.074,0-2.147,0-2.147l-5.346-5.345
			C26.209,0.272,25.137-0.801,24.062,0.272z M1.573,22.728L0,31.829l9.08-1.593L1.573,22.728z"/>
	</g>
</g>
<g id="Layer_2" display="none">
	<polygon display="inline" fill="#BE1E2D" points="31.925,28.637 19.539,16.25 31.925,3.864 28.386,0.325 16,12.711 3.614,0.325 
		0.075,3.864 12.461,16.25 0.075,28.637 3.614,32.175 16,19.789 28.386,32.175 	"/>
</g>
<g id="Layer_3" display="none">
	<g display="inline">
		<rect x="5" y="6" fill="#A97C50" width="6" height="4"/>
		<rect x="14" y="6" fill="#A97C50" width="13" height="4"/>
		<rect x="5" y="14" fill="#A97C50" width="6" height="4"/>
		<rect x="14" y="14" fill="#A97C50" width="13" height="4"/>
		<rect x="5" y="22" fill="#A97C50" width="6" height="4"/>
		<rect x="14" y="22" fill="#A97C50" width="13" height="4"/>
		<path fill="#A97C50" d="M0,0v32h32V0H0z M30,30H2V2h28V30z"/>
	</g>
</g>
<g id="Layer_4" display="none">
	<path id="clip_9_" display="inline" fill="#939598" d="M29.372,3.214c-3.502-3.746-9.184-3.746-12.685,0L2.144,18.583
		c-2.721,2.904-2.721,7.639,0,10.546c2.72,2.912,7.147,2.912,9.867,0l14.54-15.364c1.949-2.083,1.949-5.453,0-7.536
		c-1.944-2.078-5.1-2.078-7.044,0L8.573,17.919c-0.39,0.416-0.39,1.09,0,1.508c0.39,0.417,1.02,0.417,1.41,0L20.916,7.734
		c1.168-1.243,3.063-1.243,4.228,0c1.166,1.248,1.166,3.276,0,4.525L10.602,27.622c-1.945,2.082-5.102,2.082-7.047,0
		c-1.946-2.08-1.946-5.454,0-7.535l14.4-15.214c2.725-2.915,7.146-2.915,9.868,0c2.725,2.916,2.725,7.635,0,10.548L17.033,26.961
		c-0.393,0.417-0.393,1.091,0,1.506c0.388,0.419,1.017,0.419,1.407,0L29.372,16.78C32.876,13.034,32.876,6.96,29.372,3.214z"/>
</g>
<g id="Layer_5" display="none">
	<g display="inline">
		<path fill="#92278F" d="M22,3.873V1.081C22,0.694,20.957,0,20.571,0h-9C11.185,0,10,0.694,10,1.081v2.792C10,4.259,10,5,10,5h12
			C22,5,22,4.259,22,3.873z"/>
		<path fill="#92278F" d="M28.444,2H24v5H8V2H3.699C3.313,2,2,3.589,2,4.004v27.239C2,31.661,3.313,32,3.699,32h24.746
			C28.83,32,30,31.661,30,31.243V4.004C30,3.589,28.83,2,28.444,2z"/>
	</g>
</g>
<g id="Layer_6">
	<g>
		<path id="calendar-5-icon_4_" fill="#808285" d="M11,17H7v-4h4V17z M18,13h-4v4h4V13z M25,13h-4v4h4V13z M11,20H7v4h4V20z M18,20
			h-4v4h4V20z M25,20h-4v4h4V20z M27,7L27,7c0,1.361-1.48,2.081-3,2.081S21,8.361,21,7l0,0H11l0,0c0,1.36-1.48,2.076-3,2.076
			C6.479,9.076,5,8.36,5,7l0,0H2v22h28V7H27z M27,26H5V11h22V26z M7,3h2v4H7V3z M23,3h2v4h-2V3z"/>
	</g>
</g>
</svg>
